<svg id="Layer_1" data-name="Layer 1" xmlns="http://www.w3.org/2000/svg" width="110.52" height="79.16">
  <defs/>
  <defs>
    <style>
      .cls-1{fill:#bfbfbf}.cls-2{fill:#ccc}
    </style>
  </defs>
  <path class="cls-1" d="M25.47 106h62.77a8.34 8.34 0 007.21-12.51L64.07 39.3a8.34 8.34 0 00-14.43 0L18.25 93.53A8.34 8.34 0 0025.47 106zm31.38-29.14a4.18 4.18 0 01-4.16-4.17v-8.34a4.17 4.17 0 118.33 0v8.34a4.18 4.18 0 01-4.17 4.17zm2.78 16.67h-5.55a1.39 1.39 0 01-1.39-1.39v-5.55a1.4 1.4 0 011.39-1.4h5.55a1.4 1.4 0 011.37 1.4v5.55a1.39 1.39 0 01-1.37 1.39zM91.76 28.67a2.7 2.7 0 11-2.7 2.7 2.69 2.69 0 012.7-2.7m0-1.8a4.5 4.5 0 104.5 4.5 4.48 4.48 0 00-4.5-4.5z" transform="translate(-3.77 -26.87)"/>
  <circle class="cls-1" cx="4.5" cy="58.72" r="4.5"/>
  <path class="cls-2" d="M106.92 61.23h-1.8v3.7h-3.6v1.8h3.6v3.6h1.8v-3.6h3.6v-1.8h-3.6v-3.7zM17.43 10.77h-1.8v3.7h-3.6v1.8h3.6v3.6h1.8v-3.6h3.7v-1.8h-3.7v-3.7z"/>
</svg>
