<svg id="Layer_1" data-name="Layer 1" xmlns="http://www.w3.org/2000/svg" width="118.06" height="132.93">
  <defs/>
  <defs>
    <style>
      .cls-1{fill:#f2f2f2}
    </style>
  </defs>
  <path class="cls-1" d="M13.56 40.58l-3.25-13.73 7-1.64a11.53 11.53 0 019.75-3.9l4.67.46 48.56-11.51 4 16.71 10.86 1.08-4.79-20.18A10.38 10.38 0 0078 .26L8 16.86A10.34 10.34 0 00.32 29.24L10.48 72.1z" transform="translate(-.05)"/>
  <path class="cls-1" d="M107.64 29.28l-80.58-8a11.59 11.59 0 00-12.62 10.39l-8 80.55a11.6 11.6 0 0010.36 12.65l80.55 8a11.61 11.61 0 0012.71-10.37l8-80.55a11.62 11.62 0 00-10.42-12.67zm-9.12 92.11l-80.6-8 8-80.55 80.55 8z" transform="translate(-.05)"/>
  <path class="cls-1" d="M74.58 77.52L55.1 98.06 44.28 81.97l-19.49 20.49 69.04 6.83-19.25-31.77z"/>
</svg>
