<?xml version="1.0" encoding="utf-8"?>
<!-- Generator: Adobe Illustrator 23.0.3, SVG Export Plug-In . SVG Version: 6.00 Build 0)  -->
<svg id="Layer_1" xmlns="http://www.w3.org/2000/svg" x="0px" y="0px"
     viewBox="0 0 36 36" style="enable-background:new 0 0 36 36;" xml:space="preserve">
<style type="text/css">
	.st0{fill:#86C40B;}
	.st1{fill:#436205;}
</style>
<g>
	<path class="st0" d="M26.2,0H6.5c-1,0-1.6,0.9-1.6,1.9v32.3c0,1,0.6,1.9,1.6,1.9h22.9c1,0,1.6-0.9,1.6-1.9V5L26.2,0z"/>
	<path class="st1" d="M27.9,5l3.2,0l-4.9-5v3.3C26.2,4.3,26.9,5,27.9,5z"/>
	<path class="st1" d="M26.2,26H9.8c-0.3,0-0.6-0.3-0.6-0.6c0-0.3,0.3-0.6,0.6-0.6h16.4c0.3,0,0.6,0.3,0.6,0.6
		C26.8,25.7,26.5,26,26.2,26z"/>
	<path class="st1" d="M26.2,29.2H9.8c-0.3,0-0.6-0.3-0.6-0.6c0-0.3,0.3-0.6,0.6-0.6h16.4c0.3,0,0.6,0.3,0.6,0.6
		C26.8,29,26.5,29.2,26.2,29.2z"/>
	<path class="st1" d="M26.2,32.5H9.8c-0.3,0-0.6-0.3-0.6-0.6s0.3-0.6,0.6-0.6h16.4c0.3,0,0.6,0.3,0.6,0.6S26.5,32.5,26.2,32.5z"/>
	<path class="st1" d="M20.3,4.8l-0.5,4.6c0.9,0.4,1.7,1.1,2.1,2.1c0.2,0.7,0.3,1.3,0.1,2l4.2,2c0.2,0.1,0.5,0,0.5-0.2
		c0.5-1.7,0.5-3.6-0.1-5.4c-1-2.8-3.2-4.7-5.8-5.4C20.5,4.4,20.3,4.6,20.3,4.8z"/>
	<path class="st1" d="M19.1,16.3c-1.5,0.3-3-0.5-3.8-1.8c-0.4-0.8-0.5-1.7-0.4-2.5l-4.2-2c-0.2-0.1-0.5,0-0.5,0.2
		c-0.5,1.7-0.5,3.5,0.1,5.3c1.5,4.4,6.4,6.9,10.8,5.4c1.9-0.6,3.4-1.9,4.5-3.4c0.1-0.2,0.1-0.5-0.2-0.6l-4.2-2
		C20.8,15.7,20,16.2,19.1,16.3z"/>
	<path class="st1" d="M17.3,9.4c0.3-0.1,0.6-0.2,0.9-0.2l0.5-4.6c0-0.2-0.2-0.4-0.4-0.4c-0.9,0-1.8,0.2-2.7,0.5
		c-1.8,0.6-3.3,1.8-4.3,3.3c-0.1,0.2-0.1,0.5,0.2,0.6l4.2,2C16.1,10.1,16.6,9.7,17.3,9.4z"/>
</g>
</svg>
