<?xml version="1.0" encoding="utf-8"?>
<!-- Generator: Adobe Illustrator 23.0.3, SVG Export Plug-In . SVG Version: 6.00 Build 0)  -->
<svg id="Layer_1" xmlns="http://www.w3.org/2000/svg" x="0px" y="0px"
     viewBox="0 0 24 24" xml:space="preserve">
<style type="text/css">
	.st0{fill:#86C40B;}
  .st1{fill:#C9ED66;}
</style>
  <g>
	<path class="st0" d="M14.1,6.3c1,0.6,1.6,1.6,1.7,2.8c0.4,0.2,0.8,0.3,1.3,0.3c1.7,0,3-1.4,3-3c0-1.7-1.4-3-3-3
		C15.5,3.3,14.2,4.7,14.1,6.3z"/>
    <path class="st1" d="M12.2,12.5c1.7,0,3-1.4,3-3s-1.4-3-3-3s-3,1.4-3,3S10.5,12.5,12.2,12.5z"/>
    <path class="st1" d="M13.4,12.7h-2.6c-2.1,0-3.9,1.7-3.9,3.9v3.1l0,0l0.2,0.1c2,0.6,3.8,0.8,5.3,0.8c2.8,0,4.5-0.8,4.6-0.9l0.2-0.1
		h0v-3.1C17.3,14.4,15.6,12.7,13.4,12.7z"/>
    <path class="st0" d="M18.4,9.6h-2.5c0,1-0.5,1.9-1.1,2.6c1.9,0.6,3.3,2.3,3.3,4.4v1c2.5-0.1,4-0.8,4.1-0.9l0.2-0.1h0v-3.1
		C22.3,11.3,20.6,9.6,18.4,9.6z"/>
    <path class="st0" d="M6.9,9.4c0.6,0,1.1-0.2,1.6-0.5c0.1-1,0.7-1.8,1.4-2.4c0-0.1,0-0.1,0-0.2c0-1.7-1.4-3-3-3c-1.7,0-3,1.4-3,3
		C3.8,8,5.2,9.4,6.9,9.4z"/>
    <path class="st0" d="M9.6,12.2c-0.7-0.7-1.1-1.6-1.1-2.6c-0.1,0-0.2,0-0.3,0H5.6c-2.1,0-3.9,1.7-3.9,3.9v3.1l0,0l0.2,0.1
		c1.6,0.5,3.1,0.7,4.4,0.8v-0.9C6.3,14.5,7.7,12.7,9.6,12.2z"/>
</g>
</svg>
