<?xml version="1.0" encoding="utf-8"?>
<!-- Generator: Adobe Illustrator 23.0.3, SVG Export Plug-In . SVG Version: 6.00 Build 0)  -->
<svg id="Layer_1" xmlns="http://www.w3.org/2000/svg" x="0px" y="0px"
     viewBox="0 0 24 24" xml:space="preserve">
<style type="text/css">
	.st0{fill:#86C40B;}
  .st1{opacity:0.60; fill:#000;}
</style>
  <g>
	<path class="st0" d="M12,2C6.5,2,2,6.5,2,12s4.5,10,10,10s10-4.5,10-10S17.5,2,12,2L12,2z"/>
    <path class="st1" d="M12,3.5c4.7,0,8.5,3.8,8.5,8.5s-3.8,8.5-8.5,8.5S3.5,16.7,3.5,12S7.3,3.5,12,3.5"/>
    <path class="st0" d="M15.4,9.8h-4.7v1.1h3.4c0.6,0,1.1,0.5,1.1,1.1v3.4c0,0.6-0.5,1.1-1.1,1.1h-1.1v1.1h-2.3v-1.1H8.6v-2.3h4.7
		v-1.1H9.8c-0.7,0.1-1.2-0.4-1.2-1V8.6c0-0.6,0.5-1.1,1.1-1.1h1.1V6.3h2.3v1.1h2.3V9.8z"/>
</g>
</svg>
