<?xml version="1.0" encoding="utf-8"?>
<!-- Generator: Adobe Illustrator 23.0.3, SVG Export Plug-In . SVG Version: 6.00 Build 0)  -->
<svg id="Layer_1" xmlns="http://www.w3.org/2000/svg" x="0px" y="0px"
     viewBox="0 0 24 24" xml:space="preserve">
<style type="text/css">
	.st0{fill:#86C40B;}
  .st1{opacity:0.60; fill:#000;}
</style>
  <polyline class="st0" points="2,17 22,17 22,21 2,21 2,17 "/>
  <path class="st0" d="M6.3,7H9V6H6V3h8v3h-3v1h6.8c1,0,2,1,2.2,2l0.5,7h-17l0.6-7C4.1,8,5.1,7,6.3,7"/>
  <polyline class="st1" points="13,9 13,11 18,11 18,9 13,9 "/>
  <polyline class="st1" points="6,9 6,10 8,10 8,9 6,9 "/>
  <polyline class="st1" points="9,9 9,10 11,10 11,9 9,9 "/>
  <polyline class="st1" points="6,11 6,12 8,12 8,11 6,11 "/>
  <polyline class="st1" points="9,11 9,12 11,12 11,11 9,11 "/>
  <polyline class="st1" points="6,13 6,14 8,14 8,13 6,13 "/>
  <polyline class="st1" points="9,13 9,14 11,14 11,13 9,13 "/>
  <rect x="7" y="4" class="st1" width="6" height="1"/>
</svg>
