<?xml version="1.0" encoding="utf-8"?>
<!-- Generator: Adobe Illustrator 23.0.3, SVG Export Plug-In . SVG Version: 6.00 Build 0)  -->
<svg id="Layer_1" xmlns="http://www.w3.org/2000/svg" x="0px" y="0px"
     viewBox="0 0 24 24" xml:space="preserve">
<style type="text/css">
	.st0{fill:#86C40B;}
  .st1{opacity:0.60; fill:#000;}
</style>
  <path class="st0" d="M20.5,5.2C20.8,5.6,21,6,21,6.5V19c0,1.1-0.9,2-2,2H5c-1.1,0-2-0.9-2-2V6.5C3,6,3.2,5.6,3.5,5.2l1.4-1.7
	C5.1,3.2,5.5,3,6,3h12c0.5,0,0.9,0.2,1.1,0.5L20.5,5.2"/>
  <polyline class="st1" points="5.1,5 18.9,5 18,4 6,4 5.1,5 "/>
  <rect x="6" y="15" class="st1" width="6" height="3"/>
</svg>
