<?xml version="1.0" encoding="utf-8"?>
<!-- Generator: Adobe Illustrator 23.0.3, SVG Export Plug-In . SVG Version: 6.00 Build 0)  -->
<svg id="Layer_1" xmlns="http://www.w3.org/2000/svg" x="0px" y="0px"
     viewBox="0 0 24 24"  xml:space="preserve">
<style type="text/css">
	.st0{fill:#86C40B;}
  .st1{opacity:0.60; fill:#000;}
</style>
  <path class="st0" d="M20.5,5.2C20.8,5.6,21,6,21,6.5V19c0,1.1-0.9,2-2,2H5c-1.1,0-2-0.9-2-2V6.5C3,6,3.2,5.6,3.5,5.2l1.4-1.7
	C5.1,3.2,5.5,3,6,3h12c0.5,0,0.9,0.2,1.1,0.5L20.5,5.2"/>
  <polyline class="st1" points="5.1,5 18.9,5 18,4 6,4 5.1,5 "/>
  <g>
	<path class="st1" d="M13.3,11.6c0-0.1,0-0.2,0-0.3c0-0.1,0-0.2,0-0.3l0.7-0.5c0.1,0,0.1-0.1,0-0.2L13.4,9c0-0.1-0.1-0.1-0.2-0.1
		l-0.8,0.3C12.2,9.2,12,9.1,11.8,9l-0.1-0.9C11.7,8,11.6,8,11.5,8h-1.3C10.1,8,10.1,8,10,8.1L9.9,9C9.7,9.1,9.5,9.2,9.4,9.3L8.6,9
		C8.5,8.9,8.4,9,8.3,9l-0.7,1.1c0,0.1,0,0.2,0,0.2l0.7,0.5c0,0.1,0,0.2,0,0.3c0,0.1,0,0.2,0,0.3l-0.7,0.5c-0.1,0-0.1,0.1,0,0.2
		l0.7,1.1c0,0.1,0.1,0.1,0.2,0.1l0.8-0.3c0.2,0.1,0.4,0.2,0.6,0.3l0.1,0.9c0,0.1,0.1,0.1,0.2,0.1h1.3c0.1,0,0.2-0.1,0.2-0.1l0.1-0.9
		c0.2-0.1,0.4-0.2,0.6-0.3l0.8,0.3c0.1,0,0.2,0,0.2-0.1l0.7-1.1c0-0.1,0-0.2,0-0.2L13.3,11.6z M10.9,12.5c-0.7,0-1.2-0.6-1.2-1.2
		c0-0.7,0.6-1.2,1.2-1.2s1.2,0.6,1.2,1.2C12.1,11.9,11.5,12.5,10.9,12.5z"/>
    <path class="st1" d="M15.5,14.9c0-0.1-0.1-0.1-0.1-0.2c0-0.1-0.1-0.1-0.2-0.2l0.1-0.6c0-0.1,0-0.1-0.1-0.1l-0.8-0.3
		c-0.1,0-0.1,0-0.1,0.1L14,14.1c-0.1,0-0.3,0-0.4,0.1l-0.4-0.4c0,0-0.1,0-0.1,0l-0.7,0.6c0,0-0.1,0.1,0,0.1l0.3,0.5
		c-0.1,0.1-0.1,0.3-0.1,0.4l-0.6,0.2c-0.1,0-0.1,0.1-0.1,0.1l0.2,0.9c0,0.1,0.1,0.1,0.1,0.1l0.6,0c0,0.1,0.1,0.1,0.1,0.2
		c0,0.1,0.1,0.1,0.2,0.2l-0.1,0.6c0,0.1,0,0.1,0.1,0.1l0.8,0.3c0.1,0,0.1,0,0.1-0.1l0.3-0.5c0.1,0,0.3,0,0.4-0.1l0.4,0.4
		c0,0,0.1,0,0.1,0l0.7-0.6c0,0,0.1-0.1,0-0.1l-0.3-0.5c0.1-0.1,0.1-0.3,0.1-0.4l0.6-0.2c0.1,0,0.1-0.1,0.1-0.1l-0.2-0.9
		c0-0.1-0.1-0.1-0.1-0.1L15.5,14.9z M14.6,16.4c-0.3,0.3-0.9,0.3-1.2-0.1c-0.3-0.3-0.3-0.9,0.1-1.2c0.3-0.3,0.9-0.3,1.2,0.1
		C15,15.6,15,16.1,14.6,16.4z"/>
</g>
</svg>
