<svg id="Layer_1" data-name="Layer 1" xmlns="http://www.w3.org/2000/svg" width="310" height="168.2">
  <defs/>
  <defs>
    <style>
      .cls-1{fill:#f2f2f2}.cls-2{fill:#e5e5e5}
    </style>
  </defs>
  <path class="cls-1" d="M274 26.9H66a9.51 9.51 0 00-9.5 9.5v110a9.51 9.51 0 009.5 9.5h208a9.51 9.51 0 009.5-9.5v-110a9.51 9.51 0 00-9.5-9.5zm6.5 119.5a6.51 6.51 0 01-6.5 6.5H66a6.51 6.51 0 01-6.5-6.5V48.9h221zM59.5 45.9v-9.5a6.51 6.51 0 016.5-6.5h208a6.51 6.51 0 016.5 6.5v9.5z" transform="translate(-9 -5)"/>
  <circle class="cls-1" cx="248.9" cy="32.8" r="1.9"/>
  <circle class="cls-1" cx="255.3" cy="32.8" r="1.9"/>
  <circle class="cls-1" cx="261.6" cy="32.8" r="1.9"/>
  <path class="cls-1" d="M139.7 117.1h-5.8v10.2h-14.1v-10.2H98.7v-10.5l22-32.2h13.2v32h5.8zm-19.9-10.6v-6.1c0-1.2 0-2.7.1-4.7s.2-3 .2-3.1h-.4a28.68 28.68 0 01-2.8 5.2l-5.9 8.7zM189 101c0 9.4-1.6 16.2-4.7 20.6s-7.9 6.5-14.4 6.5c-6.3 0-11.1-2.3-14.3-6.8s-4.8-11.3-4.8-20.3c0-9.4 1.6-16.3 4.7-20.7s7.9-6.6 14.4-6.6c6.3 0 11.1 2.3 14.3 6.9S189 91.9 189 101zm-24 0c0 6 .4 10.1 1.1 12.3s2 3.4 3.8 3.4 3-1.2 3.8-3.5 1.1-6.4 1.1-12.2-.4-10-1.1-12.3-2-3.5-3.8-3.5-3 1.1-3.8 3.4S165 95 165 101zM241.3 117.1h-5.8v10.2h-14.1v-10.2h-21.1v-10.5l22-32.2h13.2v32h5.8v10.7zm-19.9-10.6v-6.1c0-1.2 0-2.7.1-4.7s.2-3 .2-3.1h-.4a36.57 36.57 0 01-2.8 5.2l-5.9 8.7zM74.8 7.6a2.69 2.69 0 012.7 2.7 2.78 2.78 0 01-2.8 2.7 2.69 2.69 0 01-2.7-2.7 2.78 2.78 0 012.8-2.7m0-1.8a4.5 4.5 0 104.5 4.5 4.48 4.48 0 00-4.5-4.5z" transform="translate(-9 -5)"/>
  <circle class="cls-1" cx="4.5" cy="85" r="4.5"/>
  <path class="cls-1" d="M292 6.8a2.7 2.7 0 11-2.7 2.7 2.69 2.69 0 012.7-2.7m0-1.8a4.5 4.5 0 104.5 4.5A4.48 4.48 0 00292 5z" transform="translate(-9 -5)"/>
  <circle class="cls-1" cx="287.5" cy="162.7" r="4.5"/>
  <path class="cls-2" d="M21.7 159.1h-1.8v3.7h-3.6v1.8h3.6v3.6h1.8v-3.6h3.6v-1.8h-3.6v-3.7zM175.9 5.2h-1.8v3.7h-3.6v1.8h3.6v3.6h1.8v-3.6h3.7V8.9h-3.7V5.2zM310 91.3h-3.6v-3.6h-1.8v3.6H301v1.8h3.6v3.7h1.8v-3.7h3.6v-1.8z"/>
</svg>
