<svg id="Layer_1" xmlns="http://www.w3.org/2000/svg" x="0" y="0" viewBox="0 0 685.9 232.9" xml:space="preserve">
  <defs/>
  <style>
    .st0{fill:#9c9c9c}
  </style>
  <path class="st0" d="M127.2 115.5V10.3C127 4.6 122.3.2 116.6.3c-5.4.2-9.8 4.5-10 10v59.4c-25.9-23.8-66.1-22.1-89.9 3.8s-22.1 66.1 3.8 89.9 66.1 22.1 89.9-3.8c10.3-11.2 16.2-25.7 16.7-40.9v-1.2-.9c0-.3.1-.7.1-1.1zm-63.6 44c-23.7 0-43-19.3-43-43s19.3-43 43-43 43 19.3 43 43c0 23.8-19.2 43-43 43zM558.7 117.4V222.6c.2 5.7 4.9 10.1 10.6 10 5.4-.2 9.8-4.5 10-10v-59.4c25.9 23.8 66.1 22.1 89.9-3.8s22.1-66.1-3.8-89.9c-25.9-23.8-66.1-22.1-89.9 3.8-10.3 11.2-16.2 25.7-16.7 40.9v2.1c0 .3-.1.8-.1 1.1zm63.6-44c23.7 0 43 19.3 43 43s-19.3 43-43 43-43-19.3-43-43c0-23.8 19.3-43 43-43zM271.6 116.5c-.2-35.1-28.8-63.3-63.8-63.1s-63.3 28.8-63.1 63.8c.2 35 28.8 63.3 63.8 63.1 13.1-.1 25.8-4.2 36.5-11.8 4.9-3 6.4-9.4 3.3-14.2-3-4.9-9.4-6.4-14.2-3.3-.5.3-1 .7-1.5 1.1-19.7 13.5-46.6 8.5-60.1-11.1-2.9-4.3-5.1-9-6.3-14h95.1c5.6 0 10.2-4.6 10.3-10.2v-.3zM208 73.4c19.8 0 37.1 13.5 41.8 32.8h-83.6c4.7-19.3 22-32.8 41.8-32.8zM541.6 116.4v-2.1c-1.2-35.1-30.6-62.6-65.7-61.4-35.1 1.2-62.6 30.6-61.4 65.7s30.6 62.6 65.7 61.4c15.2-.5 29.7-6.5 40.9-16.7v6.6c0 5.7 4.6 10.3 10.3 10.3s10.3-4.6 10.3-10.3v-52.5c-.1-.3-.1-.6-.1-1zm-20.6 0c0 23.7-19.3 43-43 43s-43-19.3-43-43 19.3-43 43-43 43 19.3 43 43zM412.6 73.3l-49.5 95.4c-3.4 7-10.4 11.4-18.2 11.4-7.7 0-14.8-4.4-18.2-11.4L273.1 57.6c-.8-1.7-.1-3.7 1.6-4.5.4-.2.9-.3 1.4-.3h26.1c5.5 0 10.5 3.1 12.9 8l29.8 60.8c3.7 8.9 7.9 11.7 11.3 12.6 20.2 5 52.4-52.9 56.4-60.9z"/>
  <path class="st0" d="M413.6 52.8h-26.1c-5.5 0-10.4 3.1-12.9 8l-28.1 57.4 1 2.1.1.2c2.6 6.3 5.7 10 9.2 10.8.6.1 1.2.2 1.8.2 6.8 0 16.7-8.1 28-22.9 8-10.7 15.3-22.1 21.6-33.8l.5-1 7.8-16.2c.8-1.7 0-3.7-1.7-4.5-.2-.2-.7-.3-1.2-.3z"/>
</svg>
