<?xml version="1.0" encoding="utf-8"?>
<!-- Generator: Adobe Illustrator 23.0.3, SVG Export Plug-In . SVG Version: 6.00 Build 0)  -->
<svg id="Layer_1" xmlns="http://www.w3.org/2000/svg" x="0px" y="0px"
	 viewBox="0 0 685.9 232.9" xml:space="preserve">
<style type="text/css">
	.st0{fill:#9C9C9C;}
</style>
<path class="st0" d="M127.2,115.5V10.4v-0.1c-0.2-5.7-4.9-10.1-10.6-10c-5.4,0.2-9.8,4.5-10,10v59.4c-25.9-23.8-66.1-22.1-89.9,3.8
	s-22.1,66.1,3.8,89.9s66.1,22.1,89.9-3.8c10.3-11.2,16.2-25.7,16.7-40.9l0,0v-1.2c0-0.3,0-0.6,0-0.9S127.2,115.9,127.2,115.5z
	 M63.6,159.5c-23.7,0-43-19.3-43-43s19.3-43,43-43s43,19.3,43,43l0,0C106.6,140.3,87.4,159.5,63.6,159.5L63.6,159.5z"/>
<path class="st0" d="M558.7,117.4v105.1c0,0.1,0,0.1,0,0.1c0.2,5.7,4.9,10.1,10.6,10c5.4-0.2,9.8-4.5,10-10v-59.4
	c25.9,23.8,66.1,22.1,89.9-3.8s22.1-66.1-3.8-89.9c-25.9-23.8-66.1-22.1-89.9,3.8c-10.3,11.2-16.2,25.7-16.7,40.9l0,0v1.2
	c0,0.3,0,0.6,0,0.9S558.7,117.1,558.7,117.4z M622.3,73.4c23.7,0,43,19.3,43,43s-19.3,43-43,43s-43-19.3-43-43
	C579.3,92.6,598.6,73.4,622.3,73.4L622.3,73.4z"/>
<path class="st0" d="M271.6,116.5L271.6,116.5L271.6,116.5c-0.2-35.1-28.8-63.3-63.8-63.1s-63.3,28.8-63.1,63.8
	c0.2,35,28.8,63.3,63.8,63.1c13.1-0.1,25.8-4.2,36.5-11.8l0,0c4.9-3,6.4-9.4,3.3-14.2c-3-4.9-9.4-6.4-14.2-3.3
	c-0.5,0.3-1,0.7-1.5,1.1l0,0c-19.7,13.5-46.6,8.5-60.1-11.1c-2.9-4.3-5.1-9-6.3-14h95.1c5.6,0,10.2-4.6,10.3-10.2l0,0V116.5z
	 M208,73.4c19.8,0,37.1,13.5,41.8,32.8h-83.6C170.9,86.9,188.2,73.4,208,73.4z"/>
<path class="st0" d="M541.6,116.4c0-0.3,0-0.6,0-0.9v-1.2l0,0c-1.2-35.1-30.6-62.6-65.7-61.4c-35.1,1.2-62.6,30.6-61.4,65.7
	s30.6,62.6,65.7,61.4c15.2-0.5,29.7-6.5,40.9-16.7v6.6c0,5.7,4.6,10.3,10.3,10.3s10.3-4.6,10.3-10.3v-0.1v-52.4
	C541.6,117.1,541.6,116.8,541.6,116.4z M521,116.4c0,23.7-19.3,43-43,43s-43-19.3-43-43s19.3-43,43-43S521,92.7,521,116.4z"/>
<path class="st0" d="M412.6,73.3l-49.5,95.4c-3.4,7-10.4,11.4-18.2,11.4l0,0c-7.7,0-14.8-4.4-18.2-11.4L273.1,57.6
	c-0.8-1.7-0.1-3.7,1.6-4.5c0.4-0.2,0.9-0.3,1.4-0.3h26.1c5.5,0,10.5,3.1,12.9,8l29.8,60.8c3.7,8.9,7.9,11.7,11.3,12.6
	C376.4,139.2,408.6,81.3,412.6,73.3z"/>
<path class="st0" d="M413.6,52.8h-26.1c-5.5,0-10.4,3.1-12.9,8l-28.1,57.4l1,2.1l0.1,0.2c2.6,6.3,5.7,10,9.2,10.8
	c0.6,0.1,1.2,0.2,1.8,0.2c6.8,0,16.7-8.1,28-22.9c8-10.7,15.3-22.1,21.6-33.8l0.5-1l7.8-16.2c0.8-1.7,0-3.7-1.7-4.5
	C414.6,52.9,414.1,52.8,413.6,52.8z"/>
</svg>
