<?xml version="1.0" encoding="utf-8"?>
<!-- Generator: Adobe Illustrator 23.0.3, SVG Export Plug-In . SVG Version: 6.00 Build 0)  -->
<svg id="Layer_1" xmlns="http://www.w3.org/2000/svg" x="0px" y="0px"
     viewBox="0 0 170.9 170.5">
<style type="text/css">
	.st0{fill:#86C40B;}
	.st1{fill:#FFFFFF;}
</style>
<title>logo-dark-background</title>
<path class="st0" d="M116.5,161.6C72.7,177.7,23.7,175.2,6,127S11.3,20.3,55.1,4.2s91.8,16.2,109.6,64.5S160.3,145.5,116.5,161.6z"
	/>
<g>
	<path class="st1" d="M68.3,96.8c0,12.3-10.1,22.2-22.2,22.2c-4.6,0-8.8-1.4-12.4-3.7V136c0,3-2.4,5.4-5.3,5.4c-3,0-5.4-2.4-5.4-5.4
		V80.1c0-2.9,2.4-5.3,5.4-5.3c2.4,0,4.4,1.6,5.1,3.7c3.5-2.5,7.9-3.8,12.6-3.8C58.3,74.6,68.3,84.5,68.3,96.8z M57.7,96.8
		c0-6.4-5.3-11.6-11.6-11.6c-6.4,0-11.6,5.1-11.6,11.6c0,6.4,5.1,11.6,11.6,11.6C52.5,108.4,57.7,103.2,57.7,96.8z"/>
	<path class="st1" d="M126.3,118.5L126.3,118.5c-2,0-3.8-1.1-4.7-2.9l-16.5-32.9c-1.2-2.6-0.2-5.7,2.4-7c2.5-1.2,5.6-0.2,6.9,2.4
		l11.8,23.7l11.8-23.1c1.3-2.5,4.4-3.6,6.9-2.3s3.6,4.4,2.3,6.9l-16.5,32.4C129.9,117.4,128.2,118.5,126.3,118.5z"/>
	<path class="st1" d="M102.7,83.9c-1.9-4.1-0.3-8.7,3.6-10.6c0.5-0.2,1-0.4,1.5-0.6V57.4c0-2.9-2.4-5.4-5.4-5.4
		c-2.9,0-5.3,2.5-5.3,5.4V78c-3.6-2.3-7.8-3.7-12.4-3.7c-7.3,0-13.7,3.5-17.8,8.9c2.6,3.9,4.1,8.6,4.1,13.6c0,4.9-1.4,9.4-3.8,13.2
		c4.1,5.2,10.5,8.6,17.6,8.6c4.7,0,9.1-1.4,12.6-3.8c0.7,2.2,2.7,3.7,5.1,3.7c3,0,5.4-2.4,5.4-5.3V93.9L102.7,83.9z M84.7,108
		c-6.4,0-11.6-5.1-11.6-11.6c0-6.5,5.1-11.6,11.6-11.6c6.4,0,11.6,5.1,11.6,11.6C96.3,102.9,91.1,108,84.7,108z"/>
</g>
</svg>
