<?xml version="1.0" encoding="utf-8"?>
<!-- Generator: Adobe Illustrator 23.0.3, SVG Export Plug-In . SVG Version: 6.00 Build 0)  -->
<svg id="Layer_1" xmlns="http://www.w3.org/2000/svg" x="0px" y="0px"
     viewBox="0 0 161 67.6">
  <style type="text/css">
    .st0 {
      fill: #86C40B;
    }

    .st1 {
      fill: #417103;
    }

    .st2 {
      fill: #FFFFFF;
    }

    .st3 {
      fill: #636363;
    }

    .st4 {
      fill: #484848;
    }

    .st5 {
      fill: #FF5630;
    }

    .st6 {
      fill: #930F14;
    }

    .st7 {
      fill: #0091F9;
    }

    .st8 {
      fill: #003B90;
    }

    .st9 {
      fill: #f1f1f1;
    }

    .st10 {
      fill: #f1f1f1;
    }

    .st11 {
      fill: #0091FF;
    }
  </style>
  <g>
    <rect x="86.7" y="55" class="st0" width="12.4" height="12.4"/>
    <path class="st1" d="M99.2,67.6H86.5V54.8h12.8v12.8H99.2z M86.9,67.2h11.9v-12H86.9V67.2z"/>
  </g>
  <path class="st2" d="M91.2,62v2.9h-1v-7.3h2.7c0.7,0,1.4,0.2,1.9,0.6c0.5,0.4,0.7,1,0.7,1.6s-0.2,1.2-0.7,1.6
	c-0.5,0.4-1.2,0.6-1.9,0.6L91.2,62z M91.2,61.2h1.7c0.4,0,0.8-0.1,1.2-0.4c0.3-0.3,0.4-0.7,0.4-1c0-0.4-0.1-0.8-0.4-1
	c-0.3-0.3-0.7-0.4-1.1-0.4h-1.8C91.2,58.4,91.2,61.2,91.2,61.2z"/>
  <g>
    <rect x="99" y="55" class="st0" width="12.4" height="12.4"/>
    <path class="st1" d="M111.6,67.6H98.8V54.8h12.8C111.6,54.8,111.6,67.6,111.6,67.6z M99.2,67.2h11.9v-12H99.2V67.2z"/>
  </g>
  <path class="st2" d="M103.5,62v2.9h-1v-7.3h2.7c0.7,0,1.4,0.2,1.9,0.6c0.5,0.4,0.7,1,0.7,1.6s-0.2,1.2-0.7,1.6
	c-0.5,0.4-1.2,0.6-1.9,0.6L103.5,62z M103.5,61.2h1.7c0.4,0,0.8-0.1,1.2-0.4c0.3-0.3,0.4-0.7,0.4-1c0-0.4-0.1-0.8-0.4-1
	c-0.3-0.3-0.7-0.4-1.1-0.4h-1.8C103.5,58.4,103.5,61.2,103.5,61.2z"/>
  <g>
    <rect x="111.4" y="55" class="st0" width="12.4" height="12.4"/>
    <path class="st1" d="M123.9,67.6h-12.8V54.8h12.8V67.6z M111.6,67.2h11.9v-12h-11.9V67.2z"/>
  </g>
  <path class="st2" d="M115.9,62v2.9h-1v-7.3h2.7c0.7,0,1.4,0.2,1.9,0.6c0.5,0.4,0.7,1,0.7,1.6s-0.2,1.2-0.7,1.6
	c-0.5,0.4-1.2,0.6-1.9,0.6L115.9,62z M115.9,61.2h1.7c0.4,0,0.8-0.1,1.2-0.4c0.3-0.3,0.4-0.7,0.4-1c0-0.4-0.1-0.8-0.4-1
	c-0.3-0.3-0.7-0.4-1.1-0.4h-1.8C115.9,58.4,115.9,61.2,115.9,61.2z"/>
  <g>
    <rect x="123.7" y="55" class="st0" width="12.4" height="12.4"/>
    <path class="st1" d="M136.3,67.6h-12.8V54.8h12.8V67.6z M123.9,67.2h11.9v-12h-11.9V67.2z"/>
  </g>
  <path class="st2" d="M128.3,62v2.9h-1v-7.3h2.7c0.7,0,1.4,0.2,1.9,0.6c0.5,0.4,0.7,1,0.7,1.6s-0.2,1.2-0.7,1.6
	c-0.5,0.4-1.2,0.6-1.9,0.6L128.3,62z M128.3,61.2h1.7c0.4,0,0.8-0.1,1.2-0.4c0.3-0.3,0.4-0.7,0.4-1c0-0.4-0.1-0.8-0.4-1
	c-0.3-0.3-0.7-0.4-1.1-0.4h-1.8L128.3,61.2L128.3,61.2z"/>
  <g>
    <rect x="136.1" y="55" class="st0" width="12.4" height="12.4"/>
    <path class="st1" d="M148.6,67.6h-12.8V54.8h12.8V67.6z M136.3,67.2h11.9v-12h-11.9V67.2z"/>
  </g>
  <path class="st2" d="M140.6,62v2.9h-1v-7.3h2.7c0.7,0,1.4,0.2,1.9,0.6c0.5,0.4,0.7,1,0.7,1.6s-0.2,1.2-0.7,1.6
	c-0.5,0.4-1.2,0.6-1.9,0.6L140.6,62z M140.6,61.2h1.7c0.4,0,0.8-0.1,1.2-0.4c0.3-0.3,0.4-0.7,0.4-1c0-0.4-0.1-0.8-0.4-1
	c-0.3-0.3-0.7-0.4-1.1-0.4h-1.8L140.6,61.2L140.6,61.2z"/>
  <g>
    <rect x="12.6" y="55" class="st3" width="12.4" height="12.4"/>
    <path class="st4" d="M25.1,67.6H12.4V54.8h12.8v12.8H25.1z M12.8,67.2h11.9v-12H12.8V67.2z"/>
  </g>
  <path class="st2" d="M21.5,62.5c0,0.7-0.4,1.3-0.9,1.8c-0.5,0.4-1.2,0.7-1.9,0.6c-0.8,0-1.6-0.3-2.1-0.9c-0.5-0.7-0.8-1.6-0.8-2.5
	v-0.7c0-0.6,0.1-1.2,0.4-1.8c0.2-0.5,0.6-0.9,1-1.2c0.5-0.3,1-0.4,1.5-0.4c0.7,0,1.3,0.2,1.9,0.6c0.5,0.5,0.8,1.1,0.8,1.8h-1
	c0-0.5-0.2-0.9-0.5-1.3c-0.3-0.3-0.7-0.4-1.2-0.4c-0.6,0-1.1,0.2-1.4,0.7c-0.4,0.6-0.6,1.3-0.5,1.9v0.7c0,0.7,0.1,1.3,0.5,1.9
	c0.3,0.5,0.8,0.7,1.4,0.7c0.4,0,0.9-0.1,1.2-0.4c0.3-0.3,0.5-0.8,0.6-1.3h1V62.5z"/>
  <g>
    <rect x="24.9" y="55" class="st3" width="12.4" height="12.4"/>
    <path class="st4" d="M37.5,67.6H24.7V54.8h12.8V67.6z M25.1,67.2H37v-12H25.1V67.2z"/>
  </g>
  <path class="st2" d="M33.9,62.5c0,0.7-0.4,1.3-0.9,1.8c-0.5,0.4-1.2,0.7-1.9,0.6c-0.8,0-1.6-0.3-2.1-0.9c-0.5-0.7-0.8-1.6-0.8-2.5
	v-0.7c0-0.6,0.1-1.2,0.4-1.8c0.2-0.5,0.6-0.9,1-1.2c0.5-0.3,1-0.4,1.5-0.4c0.7,0,1.3,0.2,1.9,0.6c0.5,0.5,0.8,1.1,0.8,1.8h-1
	c0-0.5-0.2-0.9-0.5-1.3c-0.3-0.3-0.7-0.4-1.2-0.4c-0.6,0-1.1,0.2-1.4,0.7c-0.4,0.6-0.6,1.3-0.5,1.9v0.7c0,0.7,0.1,1.3,0.5,1.9
	c0.3,0.5,0.8,0.7,1.4,0.7c0.4,0,0.9-0.1,1.2-0.4c0.3-0.3,0.5-0.8,0.6-1.3h1V62.5z"/>
  <g>
    <rect x="37.3" y="55" class="st3" width="12.4" height="12.4"/>
    <path class="st4" d="M49.8,67.6H37.1V54.8h12.8L49.8,67.6L49.8,67.6z M37.5,67.2h11.9v-12H37.5V67.2z"/>
  </g>
  <path class="st2" d="M46.2,62.5c0,0.7-0.4,1.3-0.9,1.8c-0.5,0.4-1.2,0.7-1.9,0.6c-0.8,0-1.6-0.3-2.1-0.9c-0.5-0.7-0.8-1.6-0.8-2.5
	v-0.7c0-0.6,0.1-1.2,0.4-1.8c0.2-0.5,0.6-0.9,1-1.2c0.5-0.3,1-0.4,1.5-0.4c0.7,0,1.3,0.2,1.9,0.6c0.5,0.5,0.8,1.1,0.8,1.8h-1
	c0-0.5-0.2-0.9-0.5-1.3c-0.3-0.3-0.7-0.4-1.2-0.4c-0.6,0-1.1,0.2-1.4,0.7c-0.4,0.6-0.6,1.3-0.5,1.9v0.7c0,0.7,0.1,1.3,0.5,1.9
	c0.3,0.5,0.8,0.7,1.4,0.7c0.4,0,0.9-0.1,1.2-0.4c0.3-0.3,0.5-0.8,0.6-1.3L46.2,62.5z"/>
  <g>
    <rect x="49.6" y="55" class="st3" width="12.4" height="12.4"/>
    <path class="st4" d="M62.2,67.6H49.4V54.8h12.8V67.6z M49.8,67.2h11.9v-12H49.8V67.2z"/>
  </g>
  <path class="st2" d="M58.6,62.5c0,0.7-0.4,1.3-0.9,1.8c-0.5,0.4-1.2,0.7-1.9,0.6c-0.8,0-1.6-0.3-2.1-0.9c-0.5-0.7-0.8-1.6-0.8-2.5
	v-0.7c0-0.6,0.1-1.2,0.4-1.8c0.2-0.5,0.6-0.9,1-1.2c0.5-0.3,1-0.4,1.5-0.4c0.7,0,1.3,0.2,1.9,0.6c0.5,0.5,0.8,1.1,0.8,1.8h-1
	c0-0.5-0.2-0.9-0.5-1.3c-0.3-0.3-0.7-0.4-1.2-0.4c-0.6,0-1.1,0.2-1.4,0.7c-0.4,0.6-0.6,1.3-0.5,1.9v0.7c0,0.7,0.1,1.3,0.5,1.9
	c0.3,0.5,0.8,0.7,1.4,0.7c0.4,0,0.9-0.1,1.2-0.4c0.3-0.3,0.5-0.8,0.6-1.3L58.6,62.5z"/>
  <g>
    <rect x="62" y="55" class="st3" width="12.4" height="12.4"/>
    <path class="st4" d="M74.5,67.6H61.8V54.8h12.8L74.5,67.6L74.5,67.6z M62.2,67.2h11.9v-12H62.2V67.2z"/>
  </g>
  <path class="st2" d="M71,62.5c0,0.7-0.4,1.3-0.9,1.8c-0.5,0.4-1.2,0.7-1.9,0.6c-0.8,0-1.6-0.3-2.1-0.9c-0.5-0.7-0.8-1.6-0.8-2.5
	v-0.7c0-0.6,0.1-1.2,0.4-1.8c0.2-0.5,0.6-0.9,1-1.2c0.5-0.3,1-0.4,1.5-0.4c0.7,0,1.3,0.2,1.9,0.6c0.5,0.5,0.8,1.1,0.8,1.8h-1
	c0-0.5-0.2-0.9-0.5-1.3c-0.3-0.3-0.7-0.4-1.2-0.4c-0.6,0-1.1,0.2-1.4,0.7c-0.4,0.6-0.6,1.3-0.5,1.9v0.7c0,0.7,0.1,1.3,0.5,1.9
	c0.3,0.5,0.8,0.7,1.4,0.7c0.4,0,0.9-0.1,1.2-0.4c0.3-0.3,0.5-0.8,0.6-1.3L71,62.5z"/>
  <g>
    <rect x="74.3" y="55" class="st3" width="12.4" height="12.4"/>
    <path class="st4" d="M86.9,67.6H74.1V54.8h12.8V67.6z M74.5,67.2h11.9v-12H74.5V67.2z"/>
  </g>
  <path class="st2" d="M83.3,62.5c0,0.7-0.4,1.3-0.9,1.8c-0.5,0.4-1.2,0.7-1.9,0.6c-0.8,0-1.6-0.3-2.1-0.9c-0.5-0.7-0.8-1.6-0.8-2.5
	v-0.7c0-0.6,0.1-1.2,0.4-1.8c0.2-0.5,0.6-0.9,1-1.2c0.5-0.3,1-0.4,1.5-0.4c0.7,0,1.3,0.2,1.9,0.6c0.5,0.5,0.8,1.1,0.8,1.8h-1
	c0-0.5-0.2-0.9-0.5-1.3c-0.3-0.3-0.7-0.4-1.2-0.4c-0.6,0-1.1,0.2-1.4,0.7c-0.4,0.6-0.6,1.3-0.5,1.9v0.7c0,0.7,0.1,1.3,0.5,1.9
	c0.3,0.5,0.8,0.7,1.4,0.7c0.4,0,0.9-0.1,1.2-0.4c0.3-0.3,0.5-0.8,0.6-1.3L83.3,62.5z"/>
  <g>
    <rect x="0.2" y="55" class="st5" width="12.4" height="12.4"/>
    <path class="st6" d="M12.8,67.6H0V54.8h12.8V67.6z M0.4,67.2h11.9v-12H0.4V67.2z"/>
  </g>
  <path class="st2" d="M8.8,64.9H4.1v-0.7l2.5-2.8c0.3-0.3,0.6-0.7,0.8-1c0.1-0.3,0.2-0.5,0.2-0.8s-0.1-0.7-0.3-0.9
	c-0.2-0.2-0.6-0.4-0.9-0.4c-0.4,0-0.8,0.1-1.1,0.4C5,59,4.8,59.4,4.9,59.8h-1c0-0.6,0.2-1.2,0.6-1.6c0.5-0.4,1.1-0.6,1.7-0.6
	s1.2,0.2,1.6,0.5c0.4,0.4,0.6,0.9,0.6,1.4C8.5,60.2,8,61,7.1,62l-2,2.1h3.7V64.9z"/>
  <g>
    <rect x="148.4" y="55" class="st7" width="12.4" height="12.4"/>
    <path class="st8" d="M161,67.6h-12.8V54.8H161V67.6z M148.6,67.2h11.9v-12h-11.9V67.2z"/>
  </g>
  <path class="st2" d="M152,64.8v-7.3h2.1c0.6,0,1.2,0.1,1.7,0.4c0.5,0.3,0.9,0.7,1.1,1.2c0.3,0.6,0.4,1.2,0.4,1.8v0.5
	c0,0.6-0.1,1.2-0.4,1.8c-0.3,0.5-0.6,0.9-1.1,1.2c-0.5,0.3-1.1,0.4-1.7,0.4H152z M152.9,58.3V64h1c0.7,0,1.3-0.2,1.7-0.7
	c0.4-0.6,0.7-1.3,0.6-2V61c0-0.7-0.2-1.4-0.6-1.9c-0.4-0.5-1-0.7-1.6-0.7L152.9,58.3z"/>
  <rect x="37.2" class="st9" width="1" height="43.4"/>
  <rect x="39.2" class="st9" width="1" height="43.4"/>
  <rect x="43.1" class="st9" width="2" height="38.1"/>
  <rect x="46.1" class="st9" width="1" height="38.1"/>
  <rect x="50.1" class="st9" width="2" height="38.1"/>
  <rect x="53.1" class="st9" width="1" height="38.1"/>
  <rect x="55.1" class="st9" width="1" height="38.1"/>
  <rect x="58.1" class="st9" width="3" height="38.1"/>
  <rect x="62.1" class="st9" width="1" height="38.1"/>
  <rect x="67.1" class="st9" width="1" height="38.1"/>
  <rect x="69.1" class="st9" width="1" height="38.1"/>
  <rect x="73.1" class="st9" width="2" height="38.1"/>
  <rect x="76.1" class="st9" width="1" height="38.1"/>
  <rect x="79.1" class="st9" width="3" height="38.1"/>
  <rect x="83.1" class="st9" width="1" height="43.4"/>
  <rect x="85.1" class="st9" width="1" height="43.4"/>
  <rect x="87.1" class="st9" width="3" height="38.1"/>
  <rect x="92.1" class="st9" width="1" height="38.1"/>
  <rect x="94" class="st9" width="3" height="38.1"/>
  <rect x="99" class="st9" width="1" height="38.1"/>
  <rect x="101" class="st9" width="2.1" height="38.1"/>
  <rect x="104" class="st9" width="2.1" height="38.1"/>
  <rect x="108" class="st9" width="1" height="38.1"/>
  <rect x="111" class="st9" width="3" height="38.1"/>
  <rect x="115" class="st9" width="3" height="38.1"/>
  <rect x="120" class="st9" width="1" height="38.1"/>
  <rect x="122" class="st9" width="2.1" height="38.1"/>
  <rect x="125" class="st9" width="2.1" height="38.1"/>
  <rect x="129" class="st9" width="1" height="43.4"/>
  <rect x="131" class="st9" width="1" height="43.4"/>
  <g>
    <path class="st5" d="M34.1,46.8v0.9h-5c0-0.2,0-0.4,0.1-0.7c0.1-0.4,0.4-0.7,0.6-1c0.4-0.4,0.8-0.8,1.2-1.2c0.6-0.5,1.2-1,1.7-1.6
		c0.3-0.3,0.4-0.7,0.4-1.1c0-0.4-0.1-0.7-0.4-0.9c-0.3-0.3-0.7-0.4-1-0.4c-0.4,0-0.8,0.1-1.1,0.4c-0.3,0.3-0.4,0.7-0.4,1.1l-1-0.1
		c0-0.6,0.3-1.2,0.7-1.6c0.5-0.4,1.1-0.6,1.7-0.6c0.6,0,1.3,0.2,1.7,0.6c0.4,0.4,0.7,0.9,0.6,1.5c0,0.3-0.1,0.6-0.2,0.9
		c-0.2,0.3-0.4,0.7-0.6,0.9c-0.5,0.5-0.9,0.9-1.4,1.3c-0.6,0.5-0.9,0.8-1.1,1s-0.3,0.3-0.4,0.5L34.1,46.8z"/>
  </g>
  <g>
    <path class="st10" d="M44.3,43.9c0-0.7,0.1-1.5,0.3-2.2c0.1-0.5,0.4-0.9,0.8-1.3c0.4-0.3,0.9-0.5,1.4-0.4c0.4,0,0.7,0.1,1.1,0.2
		c0.3,0.2,0.6,0.4,0.8,0.7s0.4,0.7,0.5,1.1c0.1,0.6,0.2,1.2,0.2,1.8c0,0.7-0.1,1.5-0.3,2.2c-0.1,0.5-0.4,0.9-0.8,1.3
		c-0.4,0.3-0.9,0.5-1.4,0.4c-0.7,0-1.3-0.3-1.7-0.8C44.5,46.4,44.3,45.4,44.3,43.9z M45.2,43.9c0,1.2,0.1,2.1,0.4,2.5
		c0.3,0.6,1.1,0.8,1.7,0.5c0.2-0.1,0.4-0.3,0.5-0.5c0.3-0.4,0.4-1.2,0.4-2.5c0-1.2-0.1-2.1-0.4-2.5c-0.2-0.4-0.6-0.6-1.1-0.6
		c-0.4,0-0.8,0.2-1,0.5C45.4,41.8,45.2,42.7,45.2,43.9z"/>
    <path class="st10" d="M50.2,43.9c0-0.7,0.1-1.5,0.3-2.2c0.1-0.5,0.4-0.9,0.8-1.3c0.4-0.3,0.9-0.5,1.4-0.4c0.4,0,0.7,0.1,1.1,0.2
		c0.3,0.2,0.6,0.4,0.8,0.7s0.4,0.7,0.5,1.1c0.1,0.6,0.2,1.2,0.2,1.8c0,0.7-0.1,1.5-0.3,2.2c-0.1,0.5-0.4,0.9-0.8,1.3
		c-0.4,0.3-0.9,0.5-1.4,0.4c-0.7,0-1.3-0.3-1.7-0.8C50.5,46.4,50.2,45.4,50.2,43.9z M51.2,43.9c0,1.2,0.1,2.1,0.4,2.5
		c0.3,0.6,1.1,0.8,1.7,0.5c0.2-0.1,0.4-0.3,0.5-0.5c0.3-0.4,0.4-1.2,0.4-2.5s-0.1-2.1-0.4-2.5c-0.2-0.4-0.6-0.6-1.1-0.6
		c-0.4,0-0.8,0.2-1,0.5C51.3,41.8,51.2,42.7,51.2,43.9z"/>
    <path class="st10" d="M56.1,43.9c0-0.7,0.1-1.5,0.3-2.2c0.1-0.5,0.4-0.9,0.8-1.3c0.4-0.3,0.9-0.5,1.4-0.4c0.4,0,0.7,0.1,1.1,0.2
		c0.3,0.2,0.6,0.4,0.8,0.7s0.4,0.7,0.5,1.1c0.1,0.6,0.2,1.2,0.2,1.8c0,0.7-0.1,1.5-0.3,2.2c-0.1,0.5-0.4,0.9-0.8,1.3
		c-0.4,0.3-0.9,0.5-1.4,0.4c-0.7,0-1.3-0.3-1.7-0.8C56.4,46.4,56.1,45.4,56.1,43.9z M57.1,43.9c0,1.2,0.1,2.1,0.4,2.5
		c0.3,0.6,1.1,0.8,1.7,0.5c0.2-0.1,0.4-0.3,0.5-0.5c0.3-0.4,0.4-1.2,0.4-2.5c0-1.2-0.1-2.1-0.4-2.5c-0.2-0.4-0.6-0.6-1.1-0.6
		c-0.4,0-0.8,0.2-1,0.5C57.2,41.8,57.1,42.7,57.1,43.9L57.1,43.9z"/>
    <path class="st10" d="M62.1,45.7l0.9-0.1c0.1,0.4,0.2,0.8,0.5,1.1c0.3,0.2,0.6,0.4,0.9,0.3c0.4,0,0.8-0.2,1.1-0.5
		c0.3-0.3,0.5-0.7,0.5-1.1c0-0.4-0.1-0.8-0.4-1.1c-0.2-0.2-0.6-0.3-1-0.3c-0.2,0-0.4,0-0.7,0.1l0.1-0.8h0.2c0.4,0,0.8-0.1,1.1-0.3
		c0.3-0.2,0.5-0.6,0.5-1c0-0.3-0.1-0.6-0.3-0.9c-0.2-0.2-0.6-0.4-0.9-0.3c-0.3,0-0.7,0.1-0.9,0.3c-0.3,0.3-0.4,0.6-0.5,1l-1-0.1
		c0.1-0.6,0.4-1.1,0.8-1.5c0.4-0.4,1-0.5,1.5-0.5c0.4,0,0.8,0.1,1.1,0.3c0.3,0.2,0.6,0.4,0.8,0.7c0.2,0.3,0.3,0.6,0.3,1
		c0,0.3-0.1,0.6-0.3,0.9c-0.2,0.3-0.5,0.5-0.8,0.6c0.4,0.1,0.8,0.3,1.1,0.6c0.3,0.4,0.4,0.8,0.4,1.2c0,0.6-0.3,1.3-0.7,1.7
		c-0.5,0.5-1.2,0.7-1.8,0.7c-0.6,0-1.2-0.2-1.7-0.6C62.4,46.8,62.1,46.3,62.1,45.7z"/>
    <path class="st10" d="M71,47.7v-1.8h-3.3V45l3.5-4.9H72V45h1v0.9h-1v1.8H71z M71,45v-3.4L68.6,45H71z"/>
    <path class="st10" d="M73.9,43.9c0-0.7,0.1-1.5,0.3-2.2c0.1-0.5,0.4-0.9,0.8-1.3c0.4-0.3,0.9-0.5,1.4-0.4c0.4,0,0.7,0.1,1.1,0.2
		c0.3,0.2,0.6,0.4,0.8,0.7c0.2,0.3,0.4,0.7,0.5,1.1c0.1,0.6,0.2,1.2,0.2,1.8c0,0.7-0.1,1.5-0.3,2.2c-0.1,0.5-0.4,0.9-0.8,1.3
		c-0.4,0.3-0.9,0.5-1.4,0.4c-0.7,0-1.3-0.3-1.7-0.8C74.1,46.4,73.9,45.4,73.9,43.9z M74.9,43.9c0,1.2,0.1,2.1,0.4,2.5
		c0.3,0.6,1.1,0.8,1.7,0.5c0.2-0.1,0.4-0.3,0.5-0.5c0.3-0.4,0.4-1.2,0.4-2.5c0-1.2-0.1-2.1-0.4-2.5c-0.2-0.4-0.6-0.6-1.1-0.6
		c-0.4,0-0.8,0.2-1,0.5C75,41.8,74.9,42.7,74.9,43.9z"/>
  </g>
  <path class="st0" d="M90.2,43.9c0-0.7,0.1-1.5,0.3-2.2c0.1-0.5,0.4-0.9,0.8-1.3c0.4-0.3,0.9-0.5,1.4-0.4c0.4,0,0.7,0.1,1.1,0.2
	c0.3,0.2,0.6,0.4,0.8,0.7c0.2,0.4,0.4,0.7,0.5,1.1c0.1,0.6,0.2,1.2,0.2,1.8c0,0.7-0.1,1.5-0.3,2.2c-0.1,0.5-0.4,0.9-0.8,1.3
	c-0.4,0.3-0.9,0.5-1.4,0.4c-0.7,0-1.3-0.3-1.7-0.8C90.4,46.4,90.2,45.4,90.2,43.9z M91.2,43.9c0,1.2,0.1,2.1,0.4,2.5
	c0.3,0.6,1.1,0.8,1.7,0.5c0.2-0.1,0.4-0.3,0.5-0.5c0.3-0.4,0.4-1.2,0.4-2.5c0-1.2-0.1-2.1-0.4-2.5c-0.2-0.4-0.6-0.6-1.1-0.6
	c-0.4,0-0.8,0.2-1,0.5C91.3,41.8,91.2,42.7,91.2,43.9z"/>
  <path class="st0" d="M96.1,43.9c0-0.7,0.1-1.5,0.3-2.2c0.1-0.5,0.4-0.9,0.8-1.3c0.4-0.3,0.9-0.5,1.4-0.4c0.4,0,0.7,0.1,1.1,0.2
	c0.3,0.2,0.6,0.4,0.8,0.7c0.2,0.3,0.4,0.7,0.5,1.1c0.1,0.6,0.2,1.2,0.2,1.8c0,0.7-0.1,1.5-0.3,2.2c-0.1,0.5-0.4,0.9-0.8,1.3
	c-0.4,0.3-0.9,0.5-1.4,0.4c-0.7,0-1.3-0.3-1.7-0.8C96.4,46.4,96.1,45.4,96.1,43.9z M97.1,43.9c0,1.2,0.1,2.1,0.4,2.5
	c0.3,0.6,1.1,0.8,1.7,0.5c0.2-0.1,0.4-0.3,0.5-0.5c0.3-0.4,0.4-1.2,0.4-2.5c0-1.2-0.1-2.1-0.4-2.5c-0.2-0.4-0.6-0.6-1.1-0.6
	c-0.4,0-0.8,0.2-1,0.5C97.2,41.8,97.1,42.7,97.1,43.9L97.1,43.9z"/>
  <path class="st0" d="M107,46.8v0.9h-5c0-0.2,0-0.4,0.1-0.7c0.1-0.4,0.4-0.7,0.6-1c0.4-0.4,0.8-0.8,1.2-1.2c0.6-0.5,1.2-1,1.7-1.6
	c0.3-0.3,0.4-0.7,0.4-1.1c0-0.4-0.1-0.7-0.4-0.9c-0.3-0.3-0.7-0.4-1-0.4c-0.4,0-0.8,0.1-1.1,0.4c-0.3,0.3-0.4,0.7-0.4,1.1l-1-0.1
	c0-0.6,0.3-1.2,0.7-1.6c0.5-0.4,1.1-0.6,1.8-0.6c0.6,0,1.3,0.2,1.7,0.6c0.4,0.4,0.7,0.9,0.6,1.5c0,0.3-0.1,0.6-0.2,0.9
	c-0.2,0.3-0.4,0.7-0.6,0.9c-0.5,0.5-0.9,0.9-1.4,1.3c-0.6,0.5-0.9,0.8-1.1,1s-0.3,0.3-0.4,0.5L107,46.8z"/>
  <path class="st0" d="M108,45.7l1-0.1c0,0.4,0.2,0.8,0.5,1.1c0.3,0.2,0.6,0.4,1,0.4s0.9-0.2,1.1-0.5c0.3-0.4,0.5-0.9,0.5-1.4
	s-0.1-0.9-0.4-1.3c-0.3-0.3-0.7-0.5-1.2-0.5c-0.3,0-0.6,0.1-0.8,0.2c-0.2,0.1-0.4,0.3-0.6,0.5l-0.9-0.1l0.7-3.9h3.8V41h-3l-0.4,2.1
	c0.4-0.3,0.9-0.5,1.4-0.5c0.6,0,1.2,0.2,1.7,0.7s0.7,1.1,0.7,1.8c0,0.6-0.2,1.3-0.6,1.8c-0.5,0.6-1.2,1-2,0.9
	c-0.6,0-1.2-0.2-1.7-0.6C108.3,46.8,108,46.3,108,45.7z"/>
  <path class="st0" d="M113.9,43.9c0-0.7,0.1-1.5,0.3-2.2c0.1-0.5,0.4-0.9,0.8-1.3c0.4-0.3,0.9-0.5,1.4-0.4c0.4,0,0.7,0.1,1.1,0.2
	c0.3,0.2,0.6,0.4,0.8,0.7c0.2,0.3,0.4,0.7,0.5,1.1c0.1,0.6,0.2,1.2,0.2,1.8c0,0.7-0.1,1.5-0.3,2.2c-0.1,0.5-0.4,0.9-0.8,1.3
	c-0.4,0.3-0.9,0.5-1.4,0.4c-0.7,0-1.3-0.3-1.7-0.8C114.1,46.4,113.9,45.4,113.9,43.9z M114.8,43.9c0,1.2,0.1,2.1,0.4,2.5
	c0.3,0.6,1.1,0.8,1.7,0.5c0.2-0.1,0.4-0.3,0.5-0.5c0.3-0.4,0.4-1.2,0.4-2.5c0-1.2-0.1-2.1-0.4-2.5c-0.2-0.4-0.6-0.6-1.1-0.6
	c-0.4,0-0.8,0.2-1,0.5C115,41.8,114.8,42.7,114.8,43.9z"/>
  <path class="st11" d="M124.7,46.8v0.9h-5c0-0.2,0-0.4,0.1-0.7c0.1-0.4,0.4-0.7,0.6-1c0.4-0.4,0.8-0.8,1.2-1.2c0.6-0.5,1.2-1,1.7-1.6
	c0.3-0.3,0.4-0.7,0.4-1.1c0-0.4-0.1-0.7-0.4-0.9c-0.3-0.3-0.7-0.4-1.1-0.4s-0.8,0.1-1.1,0.4c-0.3,0.3-0.4,0.7-0.4,1.1l-1-0.1
	c0-0.6,0.3-1.2,0.7-1.6c0.5-0.4,1.1-0.6,1.7-0.6s1.3,0.2,1.7,0.6c0.4,0.4,0.7,0.9,0.6,1.5c0,0.3-0.1,0.6-0.2,0.9
	c-0.2,0.3-0.4,0.7-0.6,0.9c-0.5,0.5-0.9,0.9-1.4,1.3c-0.6,0.5-0.9,0.8-1.1,1s-0.3,0.3-0.4,0.5L124.7,46.8z"/>
</svg>
