<?xml version="1.0" encoding="utf-8"?>
<!-- Generator: Adobe Illustrator 23.0.3, SVG Export Plug-In . SVG Version: 6.00 Build 0)  -->
<svg id="Layer_1" xmlns="http://www.w3.org/2000/svg" x="0px" y="0px"
	 viewBox="0 0 600 302.1" xml:space="preserve">
<style type="text/css">
	.st0{fill:#ff8400;}
	.st1{fill:#ff8400;}
	.st2{opacity:0.3;}
	.st3{fill:#232323;}
	.st4{fill:#2D2D2D;}
	.st5{fill:#FF6D00;}
	.st6{fill:#FFB000;}
</style>
<title>404</title>
<g>
	<path class="st0" d="M599.1,53.7c-0.2,0-0.4-0.1-0.6-0.3L556,10.9c-0.3-0.3-0.3-0.9,0-1.2c0.3-0.3,0.9-0.3,1.2,0l42.5,42.5
		c0.3,0.3,0.3,0.9,0,1.2c0,0,0,0,0,0C599.6,53.6,599.4,53.7,599.1,53.7z"/>
	<path class="st0" d="M556.6,53.7c-0.2,0-0.5-0.1-0.6-0.3c-0.3-0.3-0.3-0.9,0-1.2l42.6-42.5c0.4-0.3,0.9-0.2,1.2,0.1
		c0.3,0.3,0.3,0.8,0,1.1l-42.6,42.5C557.1,53.6,556.8,53.7,556.6,53.7z"/>
</g>
<g>
	<path class="st0" d="M53.5,256.9c-0.2,0-0.5-0.1-0.6-0.3L24.2,228c-0.3-0.3-0.3-0.9,0-1.2c0.3-0.3,0.9-0.3,1.2,0c0,0,0,0,0,0
		l28.7,28.7c0.3,0.3,0.3,0.8,0,1.2c0,0,0,0,0,0C53.9,256.8,53.7,256.9,53.5,256.9z"/>
	<path class="st0" d="M24.8,256.9c-0.2,0-0.5-0.1-0.6-0.3c-0.3-0.3-0.3-0.9,0-1.2l28.7-28.7c0.3-0.3,0.9-0.3,1.2,0
		c0.3,0.3,0.3,0.9,0,1.2l-28.7,28.7C25.2,256.8,25,256.9,24.8,256.9z"/>
</g>
<g>
	<rect x="92.9" y="180.4" class="st0" width="16.3" height="16.3"/>
</g>
<g>
	<rect y="290.7" class="st0" width="5.8" height="5.8"/>
</g>
<g>
	<circle class="st0" cx="130.6" cy="273.8" r="16.9"/>
</g>
<path class="st1" d="M130.6,296c-12.3,0-22.2-10-22.1-22.2c0-12.3,10-22.2,22.2-22.1c12.2,0,22.1,10,22.1,22.2
	C152.8,286.1,142.9,296,130.6,296C130.6,296,130.6,296,130.6,296z M130.6,252.5c-11.8,0-21.3,9.5-21.3,21.3
	c0,11.8,9.5,21.3,21.3,21.3s21.3-9.5,21.3-21.3l0,0C151.9,262.1,142.4,252.5,130.6,252.5L130.6,252.5z"/>
<g>
	<circle class="st0" cx="404.4" cy="27" r="5"/>
</g>
<path class="st1" d="M404.4,34.4c-4.1,0-7.5-3.4-7.5-7.5s3.4-7.5,7.5-7.5c4.1,0,7.5,3.4,7.5,7.5c0,0,0,0,0,0
	C411.9,31.1,408.5,34.4,404.4,34.4z M404.4,20.3c-3.7,0-6.6,3-6.6,6.6c0,3.7,3,6.6,6.6,6.6c3.7,0,6.6-3,6.6-6.6c0,0,0,0,0,0
	C411,23.3,408,20.3,404.4,20.3z"/>
<g>
	<rect x="483" class="st0" width="5.8" height="5.8"/>
</g>
<path id="sombra" class="st2" d="M164.4,58.7h415.5c4.7,0,8.6,3.8,8.6,8.6v226.2c0,4.7-3.8,8.6-8.6,8.6H164.4
	c-4.7,0-8.6-3.8-8.6-8.6V67.2C155.8,62.5,159.7,58.7,164.4,58.7z"/>
<g id="pagina">
	<path class="st3" d="M138.7,56.8h432.7l0,0v219.8c0,4.6-3.7,8.3-8.3,8.3H147c-4.6,0-8.3-3.7-8.3-8.3V56.8L138.7,56.8z"/>
	<path class="st4" d="M147.3,41.5h415.5c4.7,0,8.6,3.8,8.6,8.6v6.8l0,0H138.7l0,0v-6.7C138.7,45.4,142.5,41.5,147.3,41.5
		C147.3,41.5,147.3,41.5,147.3,41.5z"/>
	<circle class="st5" cx="148.7" cy="49.2" r="3.7"/>
	<circle class="st6" cx="160.5" cy="49.2" r="3.7"/>
	<circle class="st0" cx="172.2" cy="49.2" r="3.7"/>
</g>
<g>
	<path class="st0" d="M279.3,208.8h-21.9V237h-40.7v-28.2h-78v-27.1l66.2-92.1h43.2L188,175.7h30v-25.1h39.4v25.1h21.9L279.3,208.8z
		"/>
	<path class="st0" d="M319.2,230.9c-10.1-6.4-18.2-15.6-23.1-26.5c-5.5-11.6-8.3-25.3-8.3-41.2c0-15.9,2.8-29.6,8.3-41.2
		c4.9-10.9,13-20.1,23.1-26.5c20.8-12.1,46.5-12.1,67.3,0c10.1,6.4,18.1,15.6,23.1,26.5c5.6,11.6,8.3,25.3,8.3,41.2
		s-2.8,29.6-8.3,41.2c-4.9,10.9-13,20.1-23.1,26.5C365.7,243,340,243,319.2,230.9L319.2,230.9z M369.7,195.6
		c4.1-6.8,6.2-17.6,6.2-32.4c0-14.8-2.1-25.5-6.2-32.4c-4.2-6.8-9.7-10.2-16.8-10.2c-7.2,0-12.8,3.4-17,10.2
		c-4.1,6.8-6.2,17.6-6.2,32.4c0,14.8,2.1,25.6,6.2,32.4s9.8,10.2,16.9,10.2C359.9,205.8,365.5,202.4,369.7,195.6z"/>
	<path class="st0" d="M571.4,208.8h-22V237h-40.7v-28.2h-78v-27.1l66.2-92.1h43.2L480,175.7h30v-25.1h39.4v25.1h22V208.8z"/>
</g>
</svg>
