<?xml version="1.0" encoding="utf-8"?>
<!-- Generator: Adobe Illustrator 23.0.3, SVG Export Plug-In . SVG Version: 6.00 Build 0)  -->
<svg id="Layer_1" xmlns="http://www.w3.org/2000/svg" x="0px" y="0px"
     viewBox="0 0 360.4 170.5" xml:space="preserve">
<style type="text/css">
	.st0{fill:#FF8400;}
	.st1{fill:#FFFFFF;}
</style>
<title>logo-dark-background</title>
<path class="st0" d="M116.5,161.6C72.7,177.7,23.7,175.2,6,127S11.3,20.3,55.1,4.2s91.8,16.2,109.6,64.5S160.3,145.5,116.5,161.6z"
	/>
<g>
	<path class="st1" d="M236.4,106.9c0,15.1-12.3,27.2-27.2,27.2c-5.6,0-10.8-1.7-15.2-4.5v25.2c0,3.7-2.9,6.6-6.5,6.6
		c-3.7,0-6.6-2.9-6.6-6.6V86.4c0-3.5,2.9-6.5,6.6-6.5c2.9,0,5.4,1.9,6.2,4.5c4.3-3,9.7-4.7,15.4-4.7
		C224.2,79.7,236.4,91.8,236.4,106.9z M223.4,106.9c0-7.8-6.5-14.2-14.2-14.2c-7.8,0-14.2,6.3-14.2,14.2c0,7.8,6.3,14.2,14.2,14.2
		C217,121.1,223.4,114.7,223.4,106.9z"/>
	<path class="st1" d="M307.3,133.4h-0.1c-2.4,0-4.5-1.4-5.6-3.5l-20.2-40.3c-1.5-3.2-0.3-7,2.9-8.6c3.1-1.5,6.9-0.3,8.5,2.9l14.5,29
		l14.5-28.3c1.6-3.1,5.4-4.4,8.5-2.8s4.4,5.4,2.8,8.5l-20.2,39.6C311.8,132,309.7,133.4,307.3,133.4z"/>
	<path class="st1" d="M278.5,91c-2.3-5-0.4-10.6,4.4-13c0.6-0.3,1.2-0.5,1.8-0.7V58.6c0-3.5-2.9-6.6-6.6-6.6c-3.5,0-6.5,3-6.5,6.6
		v25.2c-4.4-2.8-9.6-4.5-15.2-4.5c-8.9,0-16.8,4.3-21.8,10.9c3.2,4.8,5,10.5,5,16.7c0,6-1.7,11.5-4.7,16.2
		c5,6.4,12.8,10.5,21.5,10.5c5.7,0,11.1-1.7,15.4-4.7c0.9,2.7,3.3,4.5,6.2,4.5c3.7,0,6.6-2.9,6.6-6.5v-23.6L278.5,91z M256.5,120.6
		c-7.8,0-14.2-6.3-14.2-14.2s6.3-14.2,14.2-14.2c7.8,0,14.2,6.3,14.2,14.2S264.3,120.6,256.5,120.6z"/>
</g>
<g>
	<path class="st1" d="M27.7,129.6c-2.6-2.6-3.9-5.9-3.9-10.1V51.7h7l0.1,67.7c0,2.5,0.6,4.4,1.9,5.8c1.3,1.3,3,2,5.3,2
		c2.4,0,4.3-0.8,5.7-2.3l4,4.8c-2.4,2.4-5.7,3.7-9.8,3.7C33.7,133.4,30.3,132.2,27.7,129.6z"/>
	<path class="st1" d="M55.5,66.8c-1-1-1.6-2.3-1.6-3.7c0-1.4,0.5-2.7,1.6-3.7c1-1,2.3-1.6,3.7-1.6s2.7,0.5,3.7,1.6
		c1,1,1.6,2.3,1.6,3.7c0,1.4-0.5,2.7-1.6,3.7c-1,1-2.3,1.6-3.7,1.6S56.5,67.9,55.5,66.8z M55.7,78.6h7.1v53.8h-7.1V78.6z"/>
	<path class="st1" d="M103,129.8c-2.4,2.4-5.7,3.7-9.8,3.7c-4.3,0-7.7-1.3-10.3-3.9c-2.6-2.6-3.9-5.9-3.9-10.1V84.2h-7.4v-5.6H79
		V60.3h7.1v18.3H100v5.6H86.1v35.3c0,2.5,0.6,4.4,1.9,5.8c1.3,1.3,3.1,2,5.4,2s4.2-0.8,5.6-2.3L103,129.8z"/>
	<path class="st1" d="M155.3,107.9h-43.1c0.4,5.8,2.3,10.5,5.6,14c3.3,3.5,7.7,5.3,13.2,5.3c6.7,0,12-3,15.9-9.1l4.9,3.5
		c-4.6,7.9-11.6,11.8-21.1,11.8c-7.7,0-13.8-2.7-18.5-8s-7-12-7-20s2.3-14.7,7-20s10.8-8,18.5-8c7.5,0,13.4,2.6,17.9,7.7
		s6.7,11.7,6.7,19.8C155.4,106.3,155.4,107.2,155.3,107.9z M118.1,88.8c-3.3,3.4-5.2,7.9-5.8,13.5H149c-0.5-5.6-2.3-10.1-5.5-13.5
		s-7.4-5.1-12.5-5.1C125.7,83.7,121.4,85.4,118.1,88.8z"/>
</g>
<g>
	<path class="st0" d="M205.2,148.9v4.4h5.8v1h-5.8v4.8H204v-11.2h7.7v1H205.2z"/>
	<path class="st0" d="M215.9,158.4c-0.9-0.5-1.6-1.2-2.1-2c-0.5-0.9-0.8-1.8-0.8-2.9c0-1.1,0.3-2,0.8-2.9c0.5-0.9,1.2-1.5,2.1-2
		s1.9-0.7,3-0.7s2.1,0.2,3,0.7c0.9,0.5,1.6,1.2,2.1,2c0.5,0.9,0.8,1.8,0.8,2.9c0,1.1-0.3,2.1-0.8,2.9c-0.5,0.9-1.2,1.5-2.1,2
		c-0.9,0.5-1.9,0.7-3,0.7S216.8,158.9,215.9,158.4z M221.3,157.5c0.7-0.4,1.3-1,1.7-1.7c0.4-0.7,0.6-1.5,0.6-2.4
		c0-0.9-0.2-1.7-0.6-2.4c-0.4-0.7-1-1.3-1.7-1.7c-0.7-0.4-1.5-0.6-2.4-0.6c-0.9,0-1.7,0.2-2.4,0.6c-0.7,0.4-1.3,1-1.7,1.7
		c-0.4,0.7-0.6,1.5-0.6,2.4c0,0.9,0.2,1.7,0.6,2.4c0.4,0.7,1,1.3,1.7,1.7c0.7,0.4,1.5,0.6,2.4,0.6
		C219.8,158.1,220.6,157.9,221.3,157.5z"/>
	<path class="st0" d="M235.1,159.1l-2.6-3.6c-0.3,0-0.6,0-0.9,0h-3v3.6h-1.2v-11.2h4.2c1.4,0,2.5,0.3,3.4,1s1.2,1.6,1.2,2.8
		c0,0.9-0.2,1.6-0.7,2.2s-1.1,1-1.9,1.3l2.7,3.8H235.1z M234.2,153.8c0.6-0.5,0.9-1.2,0.9-2.1c0-0.9-0.3-1.6-0.9-2.1
		c-0.6-0.5-1.4-0.7-2.5-0.7h-3v5.6h3C232.7,154.5,233.6,154.3,234.2,153.8z"/>
	<path class="st0" d="M240.9,158.4c-0.9-0.5-1.6-1.2-2.1-2s-0.8-1.8-0.8-2.9c0-1.1,0.3-2.1,0.8-2.9c0.5-0.9,1.2-1.5,2.1-2
		c0.9-0.5,1.9-0.7,3-0.7c0.8,0,1.6,0.1,2.3,0.4s1.3,0.7,1.8,1.2l-0.8,0.8c-0.9-0.9-2-1.3-3.3-1.3c-0.9,0-1.7,0.2-2.4,0.6
		c-0.7,0.4-1.3,1-1.7,1.7c-0.4,0.7-0.6,1.5-0.6,2.4c0,0.9,0.2,1.7,0.6,2.4c0.4,0.7,1,1.3,1.7,1.7c0.7,0.4,1.5,0.6,2.4,0.6
		c1.3,0,2.4-0.4,3.3-1.3l0.8,0.8c-0.5,0.5-1.1,0.9-1.8,1.2c-0.7,0.3-1.5,0.4-2.3,0.4C242.8,159.2,241.8,158.9,240.9,158.4z
		 M242,162.2l0.3-0.6c0.3,0.2,0.7,0.3,1.1,0.3c0.3,0,0.6-0.1,0.7-0.2s0.3-0.3,0.3-0.6c0-0.2-0.1-0.4-0.2-0.5
		c-0.2-0.1-0.4-0.2-0.7-0.2h-0.4l0.4-1.5h0.7l-0.2,0.9c0.4,0,0.8,0.2,1,0.4c0.2,0.2,0.4,0.5,0.4,0.9c0,0.4-0.2,0.8-0.5,1
		c-0.3,0.3-0.8,0.4-1.3,0.4C242.8,162.6,242.3,162.5,242,162.2z"/>
	<path class="st0" d="M257.3,156.1H251l-1.3,3h-1.2l5.1-11.2h1.2l5.1,11.2h-1.2L257.3,156.1z M256.8,155.1l-2.7-6l-2.7,6H256.8z"/>
	<path class="st0" d="M265.9,147.9h4.6c1.2,0,2.2,0.2,3.1,0.7c0.9,0.5,1.6,1.1,2.1,2s0.8,1.8,0.8,2.9c0,1.1-0.3,2.1-0.8,2.9
		c-0.5,0.8-1.2,1.5-2.1,2c-0.9,0.5-2,0.7-3.1,0.7h-4.6V147.9z M270.4,158.1c1,0,1.8-0.2,2.6-0.6c0.7-0.4,1.3-0.9,1.7-1.6
		c0.4-0.7,0.6-1.5,0.6-2.4c0-0.9-0.2-1.7-0.6-2.4c-0.4-0.7-1-1.2-1.7-1.6c-0.7-0.4-1.6-0.6-2.6-0.6h-3.3v9.2H270.4z"/>
	<path class="st0" d="M287,158.1v1h-7.9v-11.2h7.7v1h-6.5v4h5.8v1h-5.8v4.2H287z"/>
	<path class="st0" d="M303.3,147.9l-5,11.2h-1.2l-5-11.2h1.3l4.3,9.7l4.3-9.7H303.3z"/>
	<path class="st0" d="M312.9,158.1v1h-7.9v-11.2h7.7v1h-6.5v4h5.8v1h-5.8v4.2H312.9z"/>
	<path class="st0" d="M325,147.9v11.2h-1l-7.2-9.1v9.1h-1.2v-11.2h1l7.2,9.1v-9.1H325z"/>
	<path class="st0" d="M328.7,147.9h4.6c1.2,0,2.2,0.2,3.1,0.7c0.9,0.5,1.6,1.1,2.1,2s0.8,1.8,0.8,2.9c0,1.1-0.3,2.1-0.8,2.9
		c-0.5,0.8-1.2,1.5-2.1,2c-0.9,0.5-2,0.7-3.1,0.7h-4.6V147.9z M333.1,158.1c1,0,1.8-0.2,2.6-0.6c0.7-0.4,1.3-0.9,1.7-1.6
		c0.4-0.7,0.6-1.5,0.6-2.4c0-0.9-0.2-1.7-0.6-2.4c-0.4-0.7-1-1.2-1.7-1.6c-0.7-0.4-1.6-0.6-2.6-0.6h-3.3v9.2H333.1z"/>
	<path class="st0" d="M348.7,156.1h-6.2l-1.3,3h-1.2l5.1-11.2h1.2l5.1,11.2h-1.2L348.7,156.1z M348.3,155.1l-2.7-6l-2.7,6H348.3z"/>
	<path class="st0" d="M353.9,158.8c-0.8-0.3-1.4-0.6-1.8-1.1l0.5-0.9c0.4,0.4,0.9,0.7,1.6,1c0.7,0.3,1.4,0.4,2.1,0.4
		c1,0,1.8-0.2,2.3-0.6c0.5-0.4,0.8-0.8,0.8-1.4c0-0.4-0.1-0.8-0.4-1.1c-0.3-0.3-0.6-0.5-1-0.6s-0.9-0.3-1.6-0.5
		c-0.8-0.2-1.5-0.4-2-0.6c-0.5-0.2-0.9-0.5-1.3-0.9s-0.5-1-0.5-1.6c0-0.6,0.1-1.1,0.4-1.5c0.3-0.5,0.8-0.8,1.4-1.1
		c0.6-0.3,1.4-0.4,2.3-0.4c0.6,0,1.3,0.1,1.9,0.3s1.1,0.4,1.6,0.7l-0.4,0.9c-0.5-0.3-1-0.5-1.5-0.7c-0.5-0.2-1.1-0.2-1.6-0.2
		c-1,0-1.7,0.2-2.2,0.6c-0.5,0.4-0.7,0.9-0.7,1.5c0,0.4,0.1,0.8,0.4,1.1c0.3,0.3,0.6,0.5,1,0.6c0.4,0.1,1,0.3,1.7,0.5
		c0.8,0.2,1.5,0.4,2,0.6c0.5,0.2,0.9,0.5,1.3,0.9c0.4,0.4,0.5,0.9,0.5,1.6c0,0.6-0.2,1.1-0.5,1.5s-0.8,0.8-1.4,1.1
		c-0.6,0.3-1.4,0.4-2.3,0.4C355.4,159.2,354.6,159,353.9,158.8z"/>
</g>
</svg>
