<?xml version="1.0" encoding="utf-8"?>
<!-- Generator: Adobe Illustrator 23.0.3, SVG Export Plug-In . SVG Version: 6.00 Build 0)  -->
<svg id="Layer_1" xmlns="http://www.w3.org/2000/svg" x="0px" y="0px"
     width="340px" height="188.3px" viewBox="0 0 340 188.3"
     xml:space="preserve">
<style type="text/css">
	.st0{display:none;}
	.st1{fill:#2e3338;}
	.st2{fill: #454c54;}
</style>
<rect y="0" class="st0" width="340" height="188.3"/>
<path class="st1" d="M93.4,44.3h201c4.4,0,8,3.6,8,8v80.1c0,4.4-3.6,8-8,8h-201c-4.4,0-8-3.6-8-8V52.3C85.4,47.9,89,44.3,93.4,44.3z
	"/>
<path class="st2" d="M113.9,74.3h102.2c3,0,5.4,2.4,5.4,5.4l0,0c0,3-2.4,5.4-5.4,5.4H113.9c-3,0-5.4-2.4-5.4-5.4l0,0
	C108.5,76.7,110.9,74.3,113.9,74.3z"/>
<path class="st2" d="M58.2,92.2h201c4.4,0,8,3.6,8,8v80.1c0,4.4-3.6,8-8,8h-201c-4.4,0-8-3.6-8-8v-80.1
	C50.2,95.8,53.8,92.2,58.2,92.2z"/>
<path class="st1" d="M78.7,122.2h102.2c3,0,5.4,2.4,5.4,5.4l0,0c0,3-2.4,5.4-5.4,5.4H78.7c-3,0-5.4-2.4-5.4-5.4l0,0
	C73.2,124.6,75.7,122.2,78.7,122.2z"/>
<path class="st1" d="M78.7,147.5h160c3,0,5.4,2.4,5.4,5.4l0,0c0,3-2.4,5.4-5.4,5.4h-160c-3,0-5.4-2.4-5.4-5.4l0,0
	C73.2,149.9,75.7,147.5,78.7,147.5z"/>
<path class="st2" d="M77.8,22.6c1.5,0,2.7,1.2,2.7,2.7S79.2,28,77.7,28S75,26.8,75,25.3S76.3,22.6,77.8,22.6L77.8,22.6 M77.8,20.8
	c-2.5,0-4.5,2-4.5,4.5s2,4.5,4.5,4.5s4.5-2,4.5-4.5l0,0C82.3,22.8,80.3,20.8,77.8,20.8z"/>
<circle class="st2" cx="4.5" cy="85" r="4.5"/>
<path class="st1" d="M283,1.8c1.5,0,2.7,1.2,2.7,2.7s-1.2,2.7-2.7,2.7s-2.7-1.2-2.7-2.7l0,0C280.3,3,281.5,1.8,283,1.8 M283,0
	c-2.5,0-4.5,2-4.5,4.5s2,4.5,4.5,4.5s4.5-2,4.5-4.5l0,0C287.5,2,285.5,0,283,0z"/>
<circle class="st2" cx="297.5" cy="163.7" r="4.5"/>
<polygon class="st1" points="21.7,159.1 19.9,159.1 19.9,162.8 16.3,162.8 16.3,164.6 19.9,164.6 19.9,168.2 21.7,168.2 21.7,164.6
	25.3,164.6 25.3,162.8 21.7,162.8 "/>
<polygon class="st2" points="179.9,7.2 178.1,7.2 178.1,10.9 174.5,10.9 174.5,12.7 178.1,12.7 178.1,16.3 179.9,16.3 179.9,12.7
	183.6,12.7 183.6,10.9 179.9,10.9 "/>
<polygon class="st2" points="340,91.3 336.4,91.3 336.4,87.7 334.6,87.7 334.6,91.3 331,91.3 331,93.1 334.6,93.1 334.6,96.8
	336.4,96.8 336.4,93.1 340,93.1 "/>
</svg>
